<?xml version="1.0" encoding="utf-8"?>
<!-- Generator: Adobe Illustrator 16.0.3, SVG Export Plug-In . SVG Version: 6.00 Build 0)  -->
<!DOCTYPE svg PUBLIC "-//W3C//DTD SVG 1.1//EN" "http://www.w3.org/Graphics/SVG/1.1/DTD/svg11.dtd">
<svg version="1.1" xmlns="http://www.w3.org/2000/svg" xmlns:xlink="http://www.w3.org/1999/xlink" x="0px" y="0px" viewBox="0 0 512 512" enable-background="new 0 0 512 512" xml:space="preserve">
<g id="bg" display="none">
	<rect display="inline" fill="#05668D"/>
</g>
<g id="main">
	<g>
		<g>
			<path fill="#FFFFFF" d="M491.318,78.439H20.682C9.26,78.439,0,90.766,0,105.97c0,15.204,9.26,27.53,20.682,27.53h470.636
				c11.423,0,20.682-12.327,20.682-27.53C512,90.766,502.741,78.439,491.318,78.439z"/>
		</g>
	</g>
	<g>
		<g>
			<path fill="#FFFFFF" d="M491.318,235.439H20.682C9.26,235.439,0,247.766,0,262.97s9.26,27.53,20.682,27.53h470.636
				c11.423,0,20.682-12.326,20.682-27.53S502.741,235.439,491.318,235.439z"/>
		</g>
	</g>
	<g>
		<g>
			<path fill="#FFFFFF" d="M491.318,390.439H20.682C9.26,390.439,0,402.766,0,417.97s9.26,27.53,20.682,27.53h470.636
				c11.423,0,20.682-12.326,20.682-27.53S502.741,390.439,491.318,390.439z"/>
		</g>
	</g>
</g>
</svg>
